<svg xmlns="http://www.w3.org/2000/svg" xmlns:xlink="http://www.w3.org/1999/xlink" viewBox="0 0 140 140"><defs><radialGradient id="a" cx="10.95" cy="143.02" r="0.13" gradientTransform="translate(-8063.97 -106619.09) scale(745.57)" gradientUnits="userSpaceOnUse"><stop offset="0" stop-color="#2440e6"/><stop offset="1" stop-color="#5661b3"/></radialGradient><radialGradient id="b" cx="11.65" cy="143.16" r="0.09" gradientTransform="matrix(340.44, -633.17, 633.17, 340.44, -94593.17, -41263.32)" gradientUnits="userSpaceOnUse"><stop offset="0" stop-color="#6574cd" stop-opacity="0.5"/><stop offset="1" stop-color="#6574cd"/></radialGradient></defs><rect x="1" y="1" width="138" height="138" fill="none"/><circle cx="70" cy="52.88" r="51.54" fill="url(#a)"/><path d="M61.17,1.92A49.9,49.9,0,0,0,34.11,15.55a51.08,51.08,0,0,0-14.65,27l-.79,3.7-.1,46.29-.11,46.33h1c.55,0,2.3-.17,3.87-.34A40.06,40.06,0,0,0,54.42,116.4a40.59,40.59,0,0,0,3.49-11.3c.65-3.84.69-5.11.58-25.1l-.1-21.06.82-2.06a14.41,14.41,0,0,1,7.06-7.05l2-.82L87.5,49c10.55,0,19.79-.14,20.51-.27a12.7,12.7,0,0,0,8.39-6.58,19.89,19.89,0,0,0,1.2-3.66,7.67,7.67,0,0,0-.21-4.52c-1.71-6.3-7.74-15-13.9-20.14a55.82,55.82,0,0,0-23-11.6C76.1,1.2,66.16,1,61.17,1.92Z" fill="url(#b)"/></svg>